<svg width="484" height="415" viewBox="0 0 484 415" fill="none" xmlns="http://www.w3.org/2000/svg">
<path fill-rule="evenodd" clip-rule="evenodd" d="M406.975 113.356C405.627 113.718 404.827 115.106 405.189 116.456L475.462 384.117C475.824 385.467 477.211 386.269 478.56 385.908C479.908 385.546 480.708 384.158 480.346 382.808L410.073 115.148C409.711 113.797 408.324 112.995 406.975 113.356Z" fill="#F6F6F6"/>
<path d="M463.702 227.381C461.231 218.159 459.996 213.547 456.367 211.449C452.738 209.35 448.133 210.584 438.924 213.052L429.155 215.669C419.946 218.137 415.341 219.371 413.247 223.003C411.154 226.634 412.39 231.246 414.861 240.468L431.114 301.127C433.585 310.35 434.821 314.961 438.45 317.06C442.079 319.158 446.683 317.924 455.893 315.457L465.661 312.839C474.871 310.371 479.476 309.138 481.569 305.506C483.663 301.874 482.427 297.263 479.956 288.04L463.702 227.381Z" fill="#F6F6F6"/>
<path fill-rule="evenodd" clip-rule="evenodd" d="M106.189 104.397C104.84 104.758 104.04 106.146 104.402 107.497L186.091 412.364C186.453 413.715 187.84 414.517 189.188 414.155C190.537 413.794 191.337 412.406 190.975 411.056L109.286 106.188C108.924 104.838 107.538 104.036 106.189 104.397Z" fill="#F6F6F6"/>
<path d="M152.234 178.556C149.763 169.333 148.527 164.722 144.898 162.623C141.27 160.525 136.665 161.759 127.455 164.227L117.687 166.844C108.477 169.312 103.872 170.546 101.779 174.177C99.6855 177.809 100.921 182.42 103.392 191.643L137.467 318.811C139.938 328.033 141.174 332.645 144.802 334.743C148.431 336.842 153.036 335.608 162.246 333.14L172.014 330.523C181.224 328.055 185.829 326.821 187.922 323.189C190.015 319.558 188.78 314.946 186.308 305.724L152.234 178.556Z" fill="#F6F6F6"/>
<path fill-rule="evenodd" clip-rule="evenodd" d="M281.303 15.5375C279.954 15.8989 279.154 17.2868 279.516 18.6374L310.314 133.577C310.676 134.928 312.063 135.73 313.412 135.369C314.76 135.007 315.56 133.619 315.198 132.269L284.4 17.3287C284.038 15.9781 282.652 15.1761 281.303 15.5375ZM347.486 262.536C346.137 262.898 345.337 264.285 345.699 265.636L355.528 302.319C355.89 303.67 357.277 304.472 358.626 304.11C359.975 303.749 360.774 302.361 360.413 301.01L350.583 264.327C350.222 262.977 348.835 262.175 347.486 262.536Z" fill="#F6F6F6"/>
<path fill-rule="evenodd" clip-rule="evenodd" d="M308.527 136.677L318.296 134.06C323.039 132.789 326.107 131.978 328.448 131.677C330.643 131.394 331.43 131.677 331.902 131.95C332.373 132.222 333.011 132.764 333.864 134.809C334.774 136.99 335.607 140.057 336.88 144.807L363.091 242.628C364.364 247.378 365.176 250.451 365.478 252.794C365.762 254.992 365.48 255.78 365.208 256.252C364.936 256.724 364.396 257.362 362.354 258.215C360.176 259.125 357.113 259.957 352.37 261.228L342.602 263.845C337.859 265.116 334.79 265.927 332.45 266.228C330.255 266.51 329.468 266.228 328.996 265.955C328.524 265.682 327.886 265.141 327.033 263.096C326.123 260.915 325.29 257.847 324.018 253.098L297.807 155.277C296.534 150.527 295.722 147.454 295.419 145.111C295.136 142.913 295.417 142.125 295.689 141.653C295.961 141.181 296.502 140.542 298.544 139.689C300.721 138.78 303.785 137.948 308.527 136.677ZM334.428 127.566C338.057 129.664 339.293 134.276 341.764 143.498L367.975 241.32C370.446 250.542 371.682 255.153 369.589 258.785C367.495 262.417 362.89 263.651 353.681 266.119L343.912 268.736C334.703 271.204 330.098 272.438 326.469 270.339C322.84 268.241 321.605 263.629 319.134 254.407L292.922 156.585C290.451 147.363 289.216 142.751 291.309 139.12C293.402 135.488 298.007 134.254 307.217 131.786L316.985 129.169C326.195 126.701 330.8 125.467 334.428 127.566Z" fill="#F6F6F6"/>
<path fill-rule="evenodd" clip-rule="evenodd" d="M178.019 1.27451C176.671 1.63589 175.871 3.02376 176.232 4.37439L203.54 106.287C203.902 107.638 205.289 108.44 206.637 108.078C207.986 107.717 208.786 106.329 208.424 104.978L181.117 3.06568C180.755 1.71505 179.368 0.913116 178.019 1.27451ZM231.636 201.374C230.287 201.735 229.487 203.123 229.849 204.474L239.678 241.157C240.04 242.507 241.427 243.309 242.775 242.948C244.124 242.587 244.924 241.199 244.562 239.848L234.733 203.165C234.371 201.814 232.984 201.013 231.636 201.374Z" fill="#F6F6F6"/>
<path fill-rule="evenodd" clip-rule="evenodd" d="M201.753 109.387L211.521 106.77C216.264 105.499 219.333 104.688 221.673 104.387C223.868 104.104 224.656 104.387 225.127 104.659C225.599 104.932 226.237 105.474 227.09 107.519C228 109.7 228.833 112.767 230.106 117.517L247.241 181.466C248.513 186.215 249.326 189.288 249.628 191.632C249.912 193.83 249.63 194.618 249.358 195.09C249.086 195.562 248.545 196.2 246.503 197.053C244.326 197.962 241.263 198.794 236.52 200.065L226.752 202.683C222.009 203.953 218.94 204.765 216.6 205.066C214.405 205.348 213.617 205.066 213.146 204.793C212.674 204.52 212.036 203.978 211.183 201.933C210.273 199.753 209.44 196.685 208.167 191.936L191.032 127.986C189.76 123.237 188.947 120.164 188.645 117.82C188.361 115.623 188.643 114.834 188.915 114.362C189.187 113.89 189.728 113.252 191.77 112.399C193.947 111.49 197.01 110.658 201.753 109.387ZM227.654 100.275C231.283 102.374 232.519 106.985 234.99 116.208L252.125 180.157C254.596 189.38 255.832 193.991 253.738 197.623C251.645 201.255 247.04 202.489 237.83 204.956L228.062 207.574C218.852 210.041 214.248 211.275 210.619 209.177C206.99 207.078 205.754 202.467 203.283 193.244L186.148 129.295C183.677 120.072 182.441 115.461 184.535 111.829C186.628 108.198 191.233 106.964 200.443 104.496L210.211 101.879C219.421 99.4108 224.025 98.177 227.654 100.275Z" fill="#F6F6F6"/>
<path fill-rule="evenodd" clip-rule="evenodd" d="M2.90527 90.134C1.55655 90.4954 0.756567 91.8832 1.11847 93.2339L24.8419 181.771C25.2038 183.122 26.5906 183.924 27.9393 183.562C29.288 183.201 30.088 181.813 29.7261 180.462L6.00263 91.9251C5.64073 90.5745 4.25399 89.7726 2.90527 90.134ZM45.4984 249.094C44.1496 249.455 43.3497 250.843 43.7116 252.193L53.5407 288.876C53.9026 290.227 55.2894 291.029 56.6381 290.668C57.9868 290.306 58.7868 288.918 58.4249 287.568L48.5957 250.885C48.2338 249.534 46.8471 248.732 45.4984 249.094Z" fill="#F6F6F6"/>
<path fill-rule="evenodd" clip-rule="evenodd" d="M23.0551 184.871L32.8235 182.254C37.5664 180.983 40.635 180.172 42.9755 179.87C45.1704 179.588 45.9577 179.871 46.4293 180.143C46.9009 180.416 47.5389 180.958 48.3921 183.003C49.302 185.184 50.135 188.251 51.4077 193.001L61.1034 229.185C62.3761 233.935 63.1883 237.008 63.4907 239.352C63.7744 241.549 63.4927 242.337 63.2207 242.809C62.9486 243.281 62.408 243.92 60.366 244.773C58.1885 245.682 55.1254 246.514 50.3825 247.785L40.6142 250.402C35.8713 251.673 32.8026 252.484 30.4622 252.785C28.2673 253.068 27.4799 252.785 27.0084 252.512C26.5368 252.24 25.8988 251.698 25.0456 249.653C24.1357 247.472 23.3027 244.405 22.03 239.655L12.3343 203.47C11.0617 198.721 10.2494 195.648 9.94696 193.304C9.66333 191.106 9.94498 190.318 10.217 189.846C10.4891 189.374 11.0297 188.736 13.0717 187.883C15.2492 186.974 18.3122 186.142 23.0551 184.871ZM48.9562 175.759C52.585 177.858 53.8206 182.469 56.2918 191.692L65.9876 227.877C68.4588 237.099 69.6944 241.711 67.601 245.343C65.5076 248.974 60.9028 250.208 51.6931 252.676L41.9248 255.293C32.7151 257.761 28.1102 258.995 24.4814 256.896C20.8527 254.798 19.6171 250.187 17.1458 240.964L7.45012 204.779C4.97891 195.556 3.74331 190.945 5.83668 187.313C7.93005 183.681 12.5349 182.448 21.7446 179.98L31.5129 177.362C40.7226 174.895 45.3275 173.661 48.9562 175.759Z" fill="#F6F6F6"/>
<path d="M405.189 116.456L405.672 116.327L405.672 116.329L405.189 116.456ZM475.462 384.117L474.979 384.246L474.979 384.244L475.462 384.117ZM480.346 382.808L479.864 382.937L479.863 382.935L480.346 382.808ZM410.073 115.148L410.556 115.018L410.556 115.021L410.073 115.148ZM479.956 288.04L479.473 288.169L479.956 288.04ZM431.114 301.127L430.631 301.257L431.114 301.127ZM414.861 240.468L415.344 240.339L414.861 240.468ZM463.702 227.381L464.185 227.252L463.702 227.381ZM104.402 107.497L104.885 107.367L104.402 107.497ZM186.091 412.364L185.608 412.494L186.091 412.364ZM190.975 411.056L190.492 411.185L190.975 411.056ZM109.286 106.188L109.769 106.059L109.286 106.188ZM328.448 131.677L328.512 132.173L328.448 131.677ZM331.902 131.95L332.152 131.517L331.902 131.95ZM333.864 134.809L333.403 135.002L333.864 134.809ZM365.478 252.794L365.974 252.73L365.478 252.794ZM365.208 256.252L365.642 256.502L365.208 256.252ZM362.354 258.215L362.161 257.754L362.354 258.215ZM332.45 266.228L332.386 265.732L332.45 266.228ZM327.033 263.096L327.495 262.903L327.033 263.096ZM295.419 145.111L295.915 145.047L295.419 145.111ZM295.689 141.653L295.256 141.403L295.689 141.653ZM298.544 139.689L298.351 139.228L298.544 139.689ZM326.469 270.339L326.719 269.906L326.469 270.339ZM291.309 139.12L291.742 139.369L291.309 139.12ZM176.232 4.37439L175.75 4.5038L176.232 4.37439ZM203.54 106.287L204.023 106.158L203.54 106.287ZM208.424 104.978L208.907 104.849L208.424 104.978ZM181.117 3.06568L180.634 3.19509L181.117 3.06568ZM229.849 204.474L229.366 204.603L229.849 204.474ZM239.678 241.157L240.161 241.027L239.678 241.157ZM244.562 239.848L245.045 239.719L244.562 239.848ZM234.733 203.165L234.25 203.294L234.733 203.165ZM221.673 104.387L221.737 104.882L221.673 104.387ZM225.127 104.659L225.378 104.227L225.127 104.659ZM227.09 107.519L226.629 107.711L227.09 107.519ZM249.628 191.632L250.124 191.568L249.628 191.632ZM249.358 195.09L249.791 195.339L249.358 195.09ZM246.503 197.053L246.311 196.592L246.503 197.053ZM216.6 205.066L216.536 204.57L216.6 205.066ZM211.183 201.933L211.644 201.741L211.183 201.933ZM188.645 117.82L189.141 117.756L188.645 117.82ZM188.915 114.362L188.482 114.113L188.915 114.362ZM191.77 112.399L191.577 111.938L191.77 112.399ZM253.738 197.623L253.305 197.373L253.738 197.623ZM210.619 209.177L210.869 208.744L210.619 209.177ZM184.535 111.829L184.968 112.079L184.535 111.829ZM1.11847 93.2339L0.635505 93.3633L1.11847 93.2339ZM24.8419 181.771L25.3249 181.642L24.8419 181.771ZM29.7261 180.462L30.2091 180.333L29.7261 180.462ZM6.00263 91.9251L5.51967 92.0546L6.00263 91.9251ZM43.7116 252.193L43.2286 252.323L43.7116 252.193ZM53.5407 288.876L54.0237 288.747L53.5407 288.876ZM58.4249 287.568L58.9079 287.438L58.4249 287.568ZM48.5957 250.885L48.1128 251.014L48.5957 250.885ZM42.9755 179.87L43.0393 180.366L42.9755 179.87ZM46.4293 180.143L46.6796 179.71L46.4293 180.143ZM48.3921 183.003L47.9306 183.195L48.3921 183.003ZM63.4907 239.352L62.9948 239.416L63.4907 239.352ZM63.2207 242.809L63.6538 243.059L63.2207 242.809ZM60.366 244.773L60.1733 244.311L60.366 244.773ZM30.4622 252.785L30.3984 252.289L30.4622 252.785ZM25.0456 249.653L25.507 249.46L25.0456 249.653ZM9.94696 193.304L10.4428 193.24L9.94696 193.304ZM10.217 189.846L9.78384 189.597L10.217 189.846ZM13.0717 187.883L12.879 187.422L13.0717 187.883ZM24.4814 256.896L24.7318 256.464L24.4814 256.896ZM5.83668 187.313L6.26988 187.563L5.83668 187.313ZM404.706 116.586C404.272 114.969 405.23 113.306 406.846 112.873L407.105 113.839C406.023 114.129 405.381 115.242 405.671 116.327L404.706 116.586ZM474.979 384.244L404.705 116.583L405.672 116.329L475.946 383.99L474.979 384.244ZM478.689 386.391C477.073 386.824 475.413 385.863 474.979 384.246L475.945 383.987C476.236 385.072 477.349 385.714 478.43 385.425L478.689 386.391ZM480.829 382.678C481.263 384.295 480.305 385.958 478.689 386.391L478.43 385.425C479.512 385.135 480.154 384.022 479.864 382.937L480.829 382.678ZM410.556 115.021L480.83 382.681L479.863 382.935L409.589 115.274L410.556 115.021ZM406.846 112.873C408.462 112.44 410.122 113.401 410.556 115.018L409.59 115.277C409.299 114.192 408.186 113.55 407.105 113.839L406.846 112.873ZM439.053 213.535L429.285 216.152L429.026 215.186L438.794 212.569L439.053 213.535ZM415.344 240.339L431.597 300.998L430.631 301.257L414.378 240.598L415.344 240.339ZM455.764 314.974L465.532 312.356L465.791 313.322L456.023 315.94L455.764 314.974ZM479.473 288.169L463.219 227.511L464.185 227.252L480.439 287.911L479.473 288.169ZM465.532 312.356C470.151 311.119 473.565 310.203 476.091 309.148C478.604 308.098 480.166 306.939 481.136 305.256L482.003 305.756C480.879 307.704 479.093 308.978 476.477 310.07C473.874 311.157 470.382 312.092 465.791 313.322L465.532 312.356ZM480.439 287.911C481.671 292.508 482.609 296.005 482.97 298.806C483.333 301.621 483.126 303.807 482.003 305.756L481.136 305.256C482.106 303.573 482.327 301.638 481.978 298.934C481.628 296.215 480.712 292.794 479.473 288.169L480.439 287.911ZM431.597 300.998C432.836 305.623 433.754 309.043 434.809 311.572C435.859 314.089 437.018 315.654 438.7 316.627L438.199 317.493C436.252 316.367 434.979 314.577 433.886 311.958C432.799 309.351 431.863 305.854 430.631 301.257L431.597 300.998ZM456.023 315.94C451.431 317.17 447.94 318.106 445.142 318.466C442.331 318.828 440.147 318.619 438.199 317.493L438.7 316.627C440.382 317.599 442.314 317.822 445.015 317.475C447.73 317.125 451.145 316.211 455.764 314.974L456.023 315.94ZM429.285 216.152C424.666 217.39 421.251 218.306 418.725 219.361C416.213 220.41 414.651 221.569 413.68 223.252L412.814 222.753C413.937 220.804 415.724 219.531 418.34 218.438C420.942 217.351 424.435 216.417 429.026 215.186L429.285 216.152ZM414.378 240.598C413.146 236 412.208 232.504 411.846 229.703C411.483 226.888 411.691 224.702 412.814 222.753L413.68 223.252C412.71 224.936 412.489 226.871 412.838 229.575C413.189 232.294 414.104 235.714 415.344 240.339L414.378 240.598ZM438.794 212.569C443.385 211.339 446.877 210.402 449.674 210.042C452.486 209.68 454.67 209.89 456.617 211.016L456.117 211.882C454.435 210.909 452.502 210.686 449.802 211.034C447.087 211.383 443.671 212.297 439.053 213.535L438.794 212.569ZM463.219 227.511C461.98 222.886 461.063 219.466 460.007 216.936C458.957 214.42 457.798 212.854 456.117 211.882L456.617 211.016C458.564 212.142 459.837 213.931 460.93 216.551C462.018 219.157 462.953 222.654 464.185 227.252L463.219 227.511ZM103.919 107.626C103.486 106.01 104.443 104.347 106.06 103.914L106.318 104.88C105.237 105.17 104.595 106.283 104.885 107.367L103.919 107.626ZM185.608 412.494L103.919 107.626L104.885 107.367L186.574 412.235L185.608 412.494ZM189.318 414.638C187.702 415.071 186.041 414.11 185.608 412.494L186.574 412.235C186.865 413.319 187.978 413.962 189.059 413.672L189.318 414.638ZM191.458 410.926C191.891 412.543 190.934 414.205 189.318 414.638L189.059 413.672C190.14 413.383 190.783 412.269 190.492 411.185L191.458 410.926ZM109.769 106.059L191.458 410.926L190.492 411.185L108.803 106.318L109.769 106.059ZM106.06 103.914C107.676 103.481 109.336 104.442 109.769 106.059L108.803 106.318C108.513 105.233 107.4 104.59 106.318 104.88L106.06 103.914ZM127.584 164.71L117.816 167.327L117.557 166.361L127.326 163.744L127.584 164.71ZM103.875 191.514L137.95 318.681L136.984 318.94L102.909 191.772L103.875 191.514ZM162.116 332.657L171.885 330.04L172.143 331.006L162.375 333.623L162.116 332.657ZM185.825 305.853L151.751 178.685L152.717 178.427L186.791 305.594L185.825 305.853ZM171.885 330.04C176.503 328.802 179.918 327.886 182.444 326.831C184.956 325.782 186.519 324.623 187.489 322.94L188.355 323.439C187.232 325.388 185.445 326.661 182.829 327.754C180.227 328.841 176.735 329.775 172.143 331.006L171.885 330.04ZM186.791 305.594C188.023 310.192 188.961 313.688 189.323 316.489C189.686 319.304 189.478 321.49 188.355 323.439L187.489 322.94C188.459 321.257 188.68 319.321 188.331 316.617C187.98 313.899 187.065 310.478 185.825 305.853L186.791 305.594ZM137.95 318.681C139.189 323.306 140.106 326.726 141.162 329.256C142.212 331.773 143.371 333.338 145.053 334.31L144.552 335.176C142.605 334.05 141.332 332.261 140.239 329.641C139.152 327.035 138.216 323.538 136.984 318.94L137.95 318.681ZM162.375 333.623C157.784 334.853 154.292 335.79 151.495 336.15C148.683 336.512 146.499 336.302 144.552 335.176L145.053 334.31C146.734 335.283 148.667 335.506 151.367 335.158C154.082 334.809 157.498 333.895 162.116 332.657L162.375 333.623ZM117.816 167.327C113.198 168.564 109.783 169.481 107.257 170.536C104.745 171.585 103.182 172.744 102.212 174.427L101.346 173.928C102.469 171.979 104.256 170.705 106.871 169.613C109.474 168.526 112.966 167.591 117.557 166.361L117.816 167.327ZM102.909 191.772C101.677 187.175 100.739 183.678 100.378 180.878C100.015 178.063 100.222 175.876 101.346 173.928L102.212 174.427C101.242 176.11 101.021 178.045 101.37 180.75C101.721 183.468 102.636 186.889 103.875 191.514L102.909 191.772ZM127.326 163.744C131.917 162.513 135.409 161.577 138.206 161.217C141.017 160.855 143.202 161.065 145.149 162.191L144.648 163.056C142.966 162.084 141.034 161.861 138.333 162.209C135.619 162.558 132.203 163.472 127.584 164.71L127.326 163.744ZM151.751 178.685C150.512 174.06 149.594 170.64 148.539 168.111C147.489 165.594 146.33 164.029 144.648 163.056L145.149 162.191C147.096 163.317 148.369 165.106 149.462 167.726C150.549 170.332 151.485 173.829 152.717 178.427L151.751 178.685ZM279.033 18.7668C278.6 17.1501 279.557 15.4876 281.174 15.0546L281.432 16.0205C280.351 16.3102 279.709 17.4235 279.999 18.508L279.033 18.7668ZM309.831 133.707L279.033 18.7668L279.999 18.508L310.797 133.448L309.831 133.707ZM313.541 135.852C311.925 136.285 310.264 135.324 309.831 133.707L310.797 133.448C311.088 134.533 312.201 135.175 313.282 134.886L313.541 135.852ZM315.681 132.139C316.115 133.756 315.157 135.419 313.541 135.852L313.282 134.886C314.364 134.596 315.006 133.483 314.715 132.398L315.681 132.139ZM284.883 17.1993L315.681 132.139L314.715 132.398L283.917 17.4581L284.883 17.1993ZM281.174 15.0546C282.79 14.6215 284.45 15.5826 284.883 17.1993L283.917 17.4581C283.627 16.3736 282.514 15.7307 281.432 16.0205L281.174 15.0546ZM345.216 265.766C344.783 264.149 345.741 262.486 347.357 262.053L347.615 263.019C346.534 263.309 345.892 264.422 346.182 265.507L345.216 265.766ZM355.045 302.448L345.216 265.766L346.182 265.507L356.011 302.19L355.045 302.448ZM358.755 304.593C357.139 305.026 355.479 304.065 355.045 302.448L356.011 302.19C356.302 303.274 357.415 303.917 358.496 303.627L358.755 304.593ZM360.896 300.881C361.329 302.498 360.371 304.16 358.755 304.593L358.496 303.627C359.578 303.338 360.22 302.224 359.93 301.14L360.896 300.881ZM351.066 264.198L360.896 300.881L359.93 301.14L350.1 264.457L351.066 264.198ZM347.357 262.053C348.973 261.62 350.633 262.581 351.066 264.198L350.1 264.457C349.81 263.372 348.697 262.729 347.615 263.019L347.357 262.053ZM318.425 134.543L308.657 137.16L308.398 136.194L318.166 133.577L318.425 134.543ZM328.512 132.173C326.212 132.468 323.182 133.268 318.425 134.543L318.166 133.577C322.895 132.31 326.002 131.487 328.384 131.181L328.512 132.173ZM331.651 132.382C331.312 132.186 330.65 131.898 328.512 132.173L328.384 131.181C330.635 130.891 331.548 131.168 332.152 131.517L331.651 132.382ZM333.403 135.002C332.572 133.009 331.991 132.579 331.651 132.382L332.152 131.517C332.755 131.866 333.451 132.519 334.326 134.617L333.403 135.002ZM336.397 144.936C335.121 140.173 334.297 137.144 333.403 135.002L334.326 134.617C335.252 136.836 336.094 139.942 337.363 144.678L336.397 144.936ZM362.608 242.758L336.397 144.936L337.363 144.678L363.574 242.499L362.608 242.758ZM364.983 252.858C364.685 250.556 363.885 247.521 362.608 242.758L363.574 242.499C364.843 247.234 365.667 250.346 365.974 252.73L364.983 252.858ZM364.775 256.002C364.971 255.663 365.259 255 364.983 252.858L365.974 252.73C366.265 254.984 365.99 255.898 365.642 256.502L364.775 256.002ZM362.161 257.754C364.15 256.923 364.579 256.342 364.775 256.002L365.642 256.502C365.293 257.106 364.641 257.802 362.546 258.677L362.161 257.754ZM352.241 260.745C356.998 259.47 360.022 258.647 362.161 257.754L362.546 258.677C360.33 259.602 357.228 260.443 352.5 261.71L352.241 260.745ZM342.472 263.362L352.241 260.745L352.5 261.71L342.731 264.328L342.472 263.362ZM332.386 265.732C334.685 265.436 337.715 264.637 342.472 263.362L342.731 264.328C338.003 265.595 334.895 266.417 332.514 266.724L332.386 265.732ZM329.246 265.522C329.586 265.719 330.248 266.007 332.386 265.732L332.514 266.724C330.262 267.014 329.349 266.737 328.746 266.388L329.246 265.522ZM327.495 262.903C328.326 264.896 328.907 265.326 329.246 265.522L328.746 266.388C328.142 266.039 327.447 265.386 326.572 263.288L327.495 262.903ZM324.501 252.968C325.777 257.732 326.601 260.761 327.495 262.903L326.572 263.288C325.646 261.069 324.804 257.963 323.535 253.227L324.501 252.968ZM298.29 155.147L324.501 252.968L323.535 253.227L297.324 155.406L298.29 155.147ZM295.915 145.047C296.212 147.349 297.013 150.383 298.29 155.147L297.324 155.406C296.055 150.671 295.231 147.559 294.923 145.175L295.915 145.047ZM296.122 141.902C295.927 142.242 295.639 142.905 295.915 145.047L294.923 145.175C294.632 142.92 294.908 142.007 295.256 141.403L296.122 141.902ZM298.737 140.151C296.747 140.982 296.318 141.563 296.122 141.902L295.256 141.403C295.604 140.799 296.257 140.103 298.351 139.228L298.737 140.151ZM308.657 137.16C303.9 138.435 300.876 139.257 298.737 140.151L298.351 139.228C300.567 138.303 303.669 137.461 308.398 136.194L308.657 137.16ZM341.281 143.628C340.042 139.003 339.124 135.583 338.069 133.053C337.019 130.536 335.86 128.971 334.178 127.999L334.679 127.133C336.626 128.259 337.899 130.048 338.992 132.668C340.079 135.274 341.015 138.771 342.247 143.369L341.281 143.628ZM367.492 241.449L341.281 143.628L342.247 143.369L368.458 241.19L367.492 241.449ZM369.155 258.536C370.126 256.852 370.347 254.917 369.998 252.213C369.647 249.494 368.732 246.074 367.492 241.449L368.458 241.19C369.69 245.788 370.628 249.284 370.99 252.085C371.353 254.9 371.145 257.086 370.022 259.035L369.155 258.536ZM353.551 265.636C358.17 264.398 361.585 263.482 364.111 262.427C366.623 261.378 368.185 260.219 369.155 258.536L370.022 259.035C368.899 260.984 367.112 262.257 364.496 263.35C361.894 264.437 358.401 265.371 353.81 266.602L353.551 265.636ZM343.783 268.253L353.551 265.636L353.81 266.602L344.042 269.219L343.783 268.253ZM326.719 269.906C328.401 270.879 330.334 271.101 333.034 270.754C335.749 270.405 339.165 269.491 343.783 268.253L344.042 269.219C339.451 270.449 335.959 271.386 333.162 271.746C330.35 272.108 328.166 271.898 326.219 270.772L326.719 269.906ZM319.617 254.277C320.856 258.902 321.773 262.322 322.829 264.852C323.879 267.368 325.038 268.934 326.719 269.906L326.219 270.772C324.272 269.646 322.999 267.856 321.906 265.237C320.818 262.631 319.883 259.134 318.651 254.536L319.617 254.277ZM293.405 156.456L319.617 254.277L318.651 254.536L292.439 156.715L293.405 156.456ZM291.742 139.369C290.772 141.052 290.551 142.988 290.9 145.692C291.251 148.41 292.166 151.831 293.405 156.456L292.439 156.715C291.207 152.117 290.27 148.62 289.908 145.82C289.545 143.005 289.753 140.818 290.876 138.87L291.742 139.369ZM307.346 132.269C302.728 133.507 299.313 134.423 296.787 135.478C294.275 136.527 292.712 137.686 291.742 139.369L290.876 138.87C291.999 136.921 293.786 135.648 296.402 134.555C299.004 133.468 302.496 132.533 307.087 131.303L307.346 132.269ZM317.115 129.652L307.346 132.269L307.087 131.303L316.856 128.686L317.115 129.652ZM334.178 127.999C332.497 127.026 330.564 126.803 327.863 127.151C325.149 127.5 321.733 128.414 317.115 129.652L316.856 128.686C321.447 127.456 324.939 126.519 327.736 126.159C330.548 125.797 332.732 126.007 334.679 127.133L334.178 127.999ZM175.75 4.5038C175.316 2.88708 176.274 1.22458 177.89 0.791543L178.149 1.75747C177.067 2.04721 176.425 3.16044 176.715 4.24498L175.75 4.5038ZM203.057 106.417L175.75 4.5038L176.715 4.24498L204.023 106.158L203.057 106.417ZM206.767 108.561C205.151 108.994 203.49 108.033 203.057 106.417L204.023 106.158C204.313 107.242 205.427 107.885 206.508 107.595L206.767 108.561ZM208.907 104.849C209.34 106.466 208.383 108.128 206.767 108.561L206.508 107.595C207.589 107.306 208.232 106.192 207.941 105.108L208.907 104.849ZM181.6 2.93627L208.907 104.849L207.941 105.108L180.634 3.19509L181.6 2.93627ZM177.89 0.791543C179.506 0.35851 181.166 1.31955 181.6 2.93627L180.634 3.19509C180.343 2.11055 179.23 1.46772 178.149 1.75747L177.89 0.791543ZM229.366 204.603C228.933 202.986 229.89 201.324 231.506 200.891L231.765 201.857C230.684 202.147 230.041 203.26 230.332 204.344L229.366 204.603ZM239.195 241.286L229.366 204.603L230.332 204.344L240.161 241.027L239.195 241.286ZM242.905 243.431C241.289 243.864 239.628 242.903 239.195 241.286L240.161 241.027C240.452 242.112 241.565 242.755 242.646 242.465L242.905 243.431ZM245.045 239.719C245.478 241.335 244.521 242.998 242.905 243.431L242.646 242.465C243.727 242.175 244.37 241.062 244.079 239.977L245.045 239.719ZM235.216 203.036L245.045 239.719L244.079 239.977L234.25 203.294L235.216 203.036ZM231.506 200.891C233.122 200.458 234.783 201.419 235.216 203.036L234.25 203.294C233.96 202.21 232.847 201.567 231.765 201.857L231.506 200.891ZM211.651 107.253L201.883 109.87L201.624 108.904L211.392 106.287L211.651 107.253ZM221.737 104.882C219.438 105.178 216.408 105.978 211.651 107.253L211.392 106.287C216.121 105.02 219.228 104.197 221.61 103.891L221.737 104.882ZM224.877 105.092C224.538 104.896 223.875 104.607 221.737 104.882L221.61 103.891C223.861 103.601 224.774 103.877 225.378 104.227L224.877 105.092ZM226.629 107.711C225.797 105.719 225.216 105.289 224.877 105.092L225.378 104.227C225.981 104.576 226.676 105.229 227.552 107.326L226.629 107.711ZM229.623 117.646C228.346 112.882 227.523 109.854 226.629 107.711L227.552 107.326C228.477 109.545 229.32 112.652 230.589 117.387L229.623 117.646ZM246.758 181.595L229.623 117.646L230.589 117.387L247.724 181.336L246.758 181.595ZM249.132 191.696C248.835 189.394 248.034 186.359 246.758 181.595L247.724 181.336C248.993 186.072 249.816 189.183 250.124 191.568L249.132 191.696ZM248.925 194.84C249.121 194.5 249.409 193.837 249.132 191.696L250.124 191.568C250.415 193.822 250.139 194.735 249.791 195.339L248.925 194.84ZM246.311 196.592C248.3 195.761 248.729 195.18 248.925 194.84L249.791 195.339C249.443 195.944 248.791 196.64 246.696 197.514L246.311 196.592ZM236.391 199.582C241.148 198.308 244.172 197.485 246.311 196.592L246.696 197.514C244.48 198.44 241.378 199.281 236.649 200.548L236.391 199.582ZM226.622 202.2L236.391 199.582L236.649 200.548L226.881 203.166L226.622 202.2ZM216.536 204.57C218.835 204.274 221.865 203.474 226.622 202.2L226.881 203.166C222.152 204.433 219.045 205.255 216.663 205.562L216.536 204.57ZM213.396 204.36C213.735 204.556 214.398 204.845 216.536 204.57L216.663 205.562C214.412 205.851 213.499 205.575 212.895 205.226L213.396 204.36ZM211.644 201.741C212.476 203.733 213.057 204.164 213.396 204.36L212.895 205.226C212.292 204.877 211.597 204.223 210.721 202.126L211.644 201.741ZM208.65 191.806C209.927 196.57 210.751 199.598 211.644 201.741L210.721 202.126C209.796 199.907 208.953 196.8 207.684 192.065L208.65 191.806ZM191.515 127.857L208.65 191.806L207.684 192.065L190.549 128.116L191.515 127.857ZM189.141 117.756C189.438 120.059 190.239 123.093 191.515 127.857L190.549 128.116C189.28 123.38 188.457 120.269 188.149 117.884L189.141 117.756ZM189.348 114.612C189.152 114.952 188.864 115.615 189.141 117.756L188.149 117.884C187.858 115.63 188.134 114.717 188.482 114.113L189.348 114.612ZM191.962 112.861C189.973 113.691 189.544 114.272 189.348 114.612L188.482 114.113C188.83 113.508 189.482 112.813 191.577 111.938L191.962 112.861ZM201.883 109.87C197.125 111.145 194.101 111.967 191.962 112.861L191.577 111.938C193.793 111.012 196.895 110.171 201.624 108.904L201.883 109.87ZM234.507 116.337C233.268 111.712 232.35 108.292 231.295 105.763C230.245 103.246 229.086 101.681 227.404 100.708L227.905 99.8426C229.852 100.969 231.125 102.758 232.218 105.378C233.305 107.984 234.241 111.481 235.473 116.079L234.507 116.337ZM251.642 180.287L234.507 116.337L235.473 116.079L252.608 180.028L251.642 180.287ZM253.305 197.373C254.275 195.69 254.496 193.755 254.147 191.051C253.797 188.332 252.881 184.912 251.642 180.287L252.608 180.028C253.84 184.625 254.778 188.122 255.139 190.923C255.503 193.738 255.295 195.924 254.172 197.873L253.305 197.373ZM237.701 204.473C242.32 203.236 245.735 202.32 248.26 201.265C250.773 200.215 252.335 199.056 253.305 197.373L254.172 197.873C253.048 199.821 251.262 201.095 248.646 202.187C246.043 203.274 242.551 204.209 237.96 205.439L237.701 204.473ZM227.933 207.091L237.701 204.473L237.96 205.439L228.192 208.057L227.933 207.091ZM210.869 208.744C212.551 209.716 214.483 209.939 217.184 209.592C219.899 209.242 223.314 208.328 227.933 207.091L228.192 208.057C223.6 209.287 220.109 210.224 217.311 210.583C214.5 210.945 212.316 210.736 210.369 209.61L210.869 208.744ZM203.766 193.115C205.005 197.74 205.923 201.16 206.978 203.69C208.028 206.206 209.187 207.771 210.869 208.744L210.369 209.61C208.421 208.484 207.148 206.694 206.055 204.075C204.968 201.468 204.032 197.971 202.8 193.374L203.766 193.115ZM186.631 129.166L203.766 193.115L202.8 193.374L185.665 129.424L186.631 129.166ZM184.968 112.079C183.998 113.762 183.777 115.697 184.126 118.402C184.476 121.12 185.392 124.541 186.631 129.166L185.665 129.424C184.433 124.827 183.495 121.33 183.134 118.53C182.77 115.715 182.978 113.528 184.101 111.58L184.968 112.079ZM200.572 104.979C195.953 106.216 192.538 107.133 190.013 108.188C187.5 109.237 185.938 110.396 184.968 112.079L184.101 111.58C185.225 109.631 187.011 108.357 189.627 107.265C192.23 106.178 195.722 105.243 200.313 104.013L200.572 104.979ZM210.34 102.362L200.572 104.979L200.313 104.013L210.081 101.396L210.34 102.362ZM227.404 100.708C225.722 99.7358 223.79 99.5131 221.089 99.8606C218.374 100.21 214.959 101.124 210.34 102.362L210.081 101.396C214.673 100.165 218.164 99.2287 220.962 98.8688C223.773 98.507 225.957 98.7166 227.905 99.8426L227.404 100.708ZM0.635505 93.3633C0.202306 91.7465 1.15978 90.084 2.77586 89.651L3.03468 90.6169C1.95335 90.9067 1.31083 92.0199 1.60143 93.1044L0.635505 93.3633ZM24.359 181.9L0.635505 93.3633L1.60143 93.1044L25.3249 181.642L24.359 181.9ZM28.0687 184.045C26.4526 184.478 24.7922 183.517 24.359 181.9L25.3249 181.642C25.6155 182.726 26.7286 183.369 27.8099 183.079L28.0687 184.045ZM30.2091 180.333C30.6423 181.95 29.6848 183.612 28.0687 184.045L27.8099 183.079C28.8912 182.789 29.5337 181.676 29.2431 180.592L30.2091 180.333ZM6.48559 91.7957L30.2091 180.333L29.2431 180.592L5.51967 92.0546L6.48559 91.7957ZM2.77586 89.651C4.39198 89.218 6.05239 90.179 6.48559 91.7957L5.51967 92.0546C5.22907 90.97 4.11604 90.3272 3.03468 90.6169L2.77586 89.651ZM43.2286 252.323C42.7954 250.706 43.7529 249.044 45.3689 248.611L45.6278 249.576C44.5464 249.866 43.9039 250.979 44.1945 252.064L43.2286 252.323ZM53.0578 289.006L43.2286 252.323L44.1945 252.064L54.0237 288.747L53.0578 289.006ZM56.7675 291.151C55.1514 291.584 53.491 290.622 53.0578 289.006L54.0237 288.747C54.3143 289.831 55.4273 290.474 56.5087 290.185L56.7675 291.151ZM58.9079 287.438C59.341 289.055 58.3836 290.717 56.7675 291.151L56.5087 290.185C57.59 289.895 58.2325 288.782 57.9419 287.697L58.9079 287.438ZM49.0787 250.755L58.9079 287.438L57.9419 287.697L48.1128 251.014L49.0787 250.755ZM45.3689 248.611C46.9851 248.178 48.6455 249.139 49.0787 250.755L48.1128 251.014C47.8222 249.93 46.7091 249.287 45.6278 249.576L45.3689 248.611ZM32.9529 182.736L23.1845 185.354L22.9257 184.388L32.694 181.771L32.9529 182.736ZM43.0393 180.366C40.7401 180.662 37.71 181.462 32.9529 182.736L32.694 181.771C37.4227 180.503 40.5299 179.681 42.9117 179.374L43.0393 180.366ZM46.179 180.576C45.8396 180.38 45.1775 180.091 43.0393 180.366L42.9117 179.374C45.1632 179.085 46.0759 179.361 46.6796 179.71L46.179 180.576ZM47.9306 183.195C47.0993 181.203 46.5185 180.772 46.179 180.576L46.6796 179.71C47.2832 180.059 47.9784 180.713 48.8536 182.81L47.9306 183.195ZM50.9247 193.13C49.6483 188.366 48.8245 185.338 47.9306 183.195L48.8536 182.81C49.7794 185.029 50.6218 188.136 51.8906 192.871L50.9247 193.13ZM60.6204 229.315L50.9247 193.13L51.8906 192.871L61.5864 229.056L60.6204 229.315ZM62.9948 239.416C62.6977 237.113 61.8969 234.079 60.6204 229.315L61.5864 229.056C62.8552 233.792 63.6789 236.903 63.9866 239.288L62.9948 239.416ZM62.7875 242.56C62.9833 242.22 63.2712 241.557 62.9948 239.416L63.9866 239.288C64.2775 241.542 64.0021 242.455 63.6538 243.059L62.7875 242.56ZM60.1733 244.311C62.1626 243.48 62.5917 242.899 62.7875 242.56L63.6538 243.059C63.3056 243.663 62.6534 244.359 60.5587 245.234L60.1733 244.311ZM50.2531 247.302C55.0103 246.027 58.0342 245.205 60.1733 244.311L60.5587 245.234C58.3428 246.159 55.2406 247.001 50.5119 248.268L50.2531 247.302ZM40.4848 249.919L50.2531 247.302L50.5119 248.268L40.7436 250.885L40.4848 249.919ZM30.3984 252.289C32.6976 251.994 35.7276 251.194 40.4848 249.919L40.7436 250.885C36.0149 252.152 32.9078 252.975 30.526 253.281L30.3984 252.289ZM27.2587 252.08C27.5981 252.276 28.2601 252.565 30.3984 252.289L30.526 253.281C28.2745 253.571 27.3618 253.294 26.7581 252.945L27.2587 252.08ZM25.507 249.46C26.3384 251.453 26.9192 251.883 27.2587 252.08L26.7581 252.945C26.1545 252.596 25.4592 251.943 24.5841 249.845L25.507 249.46ZM22.513 239.526C23.7895 244.29 24.6131 247.318 25.507 249.46L24.5841 249.845C23.6583 247.626 22.8159 244.52 21.5471 239.785L22.513 239.526ZM12.8173 203.341L22.513 239.526L21.5471 239.785L11.8513 203.6L12.8173 203.341ZM10.4428 193.24C10.74 195.543 11.5408 198.577 12.8173 203.341L11.8513 203.6C10.5825 198.864 9.75879 195.753 9.45105 193.368L10.4428 193.24ZM10.6502 190.096C10.4543 190.436 10.1665 191.099 10.4428 193.24L9.45105 193.368C9.16016 191.114 9.43562 190.201 9.78384 189.597L10.6502 190.096ZM13.2644 188.344C11.275 189.175 10.846 189.756 10.6502 190.096L9.78384 189.597C10.1321 188.992 10.7843 188.297 12.879 187.422L13.2644 188.344ZM23.1845 185.354C18.4274 186.629 15.4035 187.451 13.2644 188.344L12.879 187.422C15.0949 186.496 18.1971 185.655 22.9257 184.388L23.1845 185.354ZM55.8089 191.821C54.5696 187.196 53.6521 183.776 52.5967 181.247C51.5468 178.73 50.3877 177.165 48.7059 176.192L49.2066 175.326C51.1536 176.452 52.4267 178.242 53.5196 180.861C54.6069 183.468 55.5428 186.965 56.7748 191.562L55.8089 191.821ZM65.5046 228.006L55.8089 191.821L56.7748 191.562L66.4705 227.747L65.5046 228.006ZM67.1678 245.093C68.138 243.41 68.3591 241.475 68.0101 238.77C67.6593 236.052 66.7439 232.631 65.5046 228.006L66.4705 227.747C67.7025 232.345 68.6405 235.842 69.0019 238.642C69.3652 241.457 69.1574 243.644 68.0342 245.592L67.1678 245.093ZM51.5637 252.193C56.1822 250.955 59.5972 250.039 62.123 248.984C64.6353 247.935 66.1977 246.776 67.1678 245.093L68.0342 245.592C66.9109 247.541 65.1242 248.815 62.5083 249.907C59.906 250.994 56.4137 251.929 51.8225 253.159L51.5637 252.193ZM41.7953 254.81L51.5637 252.193L51.8225 253.159L42.0542 255.776L41.7953 254.81ZM24.7318 256.464C26.4134 257.436 28.346 257.659 31.0465 257.311C33.7613 256.962 37.1768 256.048 41.7953 254.81L42.0542 255.776C37.463 257.006 33.9713 257.943 31.1741 258.303C28.3624 258.665 26.1783 258.455 24.2312 257.329L24.7318 256.464ZM17.6288 240.834C18.8681 245.459 19.7855 248.879 20.841 251.409C21.8909 253.926 23.05 255.491 24.7318 256.464L24.2312 257.329C22.2841 256.203 21.011 254.414 19.9181 251.794C18.8308 249.188 17.8948 245.691 16.6629 241.093L17.6288 240.834ZM7.93308 204.65L17.6288 240.834L16.6629 241.093L6.96716 204.908L7.93308 204.65ZM6.26988 187.563C5.29971 189.246 5.07859 191.181 5.42758 193.885C5.77842 196.604 6.69383 200.025 7.93308 204.65L6.96716 204.908C5.73521 200.311 4.79721 196.814 4.43579 194.013C4.07253 191.198 4.2803 189.012 5.4035 187.063L6.26988 187.563ZM21.874 180.463C17.2555 181.7 13.8405 182.616 11.3147 183.671C8.80235 184.721 7.23999 185.88 6.26988 187.563L5.4035 187.063C6.52677 185.115 8.31349 183.841 10.9293 182.749C13.5317 181.662 17.024 180.727 21.6152 179.497L21.874 180.463ZM31.6423 177.845L21.874 180.463L21.6152 179.497L31.3835 176.879L31.6423 177.845ZM48.7059 176.192C47.0243 175.22 45.0916 174.997 42.3912 175.344C39.6764 175.694 36.2608 176.608 31.6423 177.845L31.3835 176.879C35.9747 175.649 39.4664 174.713 42.2636 174.353C45.0752 173.991 47.2594 174.2 49.2066 175.326L48.7059 176.192Z" fill="#F6F6F6"/>
</svg>
