<svg width="24" height="28" viewBox="0 0 24 28" fill="none" xmlns="http://www.w3.org/2000/svg">
<path d="M12.7498 5.48245C12.6524 5.48344 12.5557 5.4665 12.4653 5.4326C12.3749 5.39871 12.2925 5.34852 12.2228 5.2849C12.1532 5.22129 12.0976 5.14549 12.0594 5.06184C12.0211 4.9782 12.0009 4.88833 11.9999 4.79739C11.9999 2.14672 14.3518 6.33709e-05 17.2478 6.33709e-05C17.3453 -0.00116956 17.4421 0.0155994 17.5327 0.0494061C17.6232 0.0832128 17.7057 0.133391 17.7754 0.197054C17.8451 0.260718 17.9006 0.336612 17.9388 0.420373C17.9769 0.504135 17.997 0.594111 17.9978 0.685129C17.9978 3.33579 15.6478 5.48245 12.7498 5.48245Z" fill="#28292D"/>
<path d="M12.7498 5.48245C12.6524 5.48344 12.5557 5.4665 12.4653 5.4326C12.3749 5.39871 12.2925 5.34852 12.2228 5.2849C12.1532 5.22129 12.0976 5.14549 12.0594 5.06184C12.0211 4.9782 12.0009 4.88833 11.9999 4.79739C11.9999 2.14672 14.3518 6.33709e-05 17.2478 6.33709e-05C17.3453 -0.00116956 17.4421 0.0155994 17.5327 0.0494061C17.6232 0.0832128 17.7057 0.133391 17.7754 0.197054C17.8451 0.260718 17.9006 0.336612 17.9388 0.420373C17.9769 0.504135 17.997 0.594111 17.9978 0.685129C17.9978 3.33579 15.6478 5.48245 12.7498 5.48245ZM23.6997 19.9136C23.9897 20.1115 24.0837 20.4736 23.9197 20.7686C21.2797 25.5957 19.1738 28 17.2498 28C16.3538 28 15.4738 27.7349 14.6158 27.2197C14 26.8507 13.2869 26.6478 12.5552 26.6333C11.8236 26.6188 11.1019 26.7933 10.4699 27.1376C9.42988 27.7069 8.43989 28 7.49991 28C4.66994 28 0 20.035 0 15.6651C0 10.9984 2.67797 7.44058 6.74992 7.44058C8.66589 7.44058 10.3199 7.69818 11.7099 8.22271C12.2978 8.44298 12.9638 8.42804 13.5378 8.17604C14.6658 7.67951 16.1538 7.44058 17.9978 7.44058C20.2517 7.44058 22.2177 8.46724 23.8497 10.4552C23.9087 10.5269 23.9517 10.6089 23.9762 10.6964C24.0007 10.7839 24.0061 10.8751 23.9921 10.9646C23.9781 11.054 23.945 11.14 23.8948 11.2173C23.8446 11.2946 23.7782 11.3617 23.6997 11.4147C21.8777 12.6654 20.9997 14.0672 20.9997 15.6651C20.9997 17.2611 21.8777 18.6648 23.6997 19.9136Z" fill="#28292D"/>
</svg>
