<svg width="32" height="32" viewBox="0 0 32 32" fill="none" xmlns="http://www.w3.org/2000/svg">
<path d="M22.4 4.39995C22.4 4.08169 22.5264 3.77647 22.7515 3.55142C22.9765 3.32638 23.2818 3.19995 23.6 3.19995H27.6C27.9183 3.19995 28.2235 3.32638 28.4485 3.55142C28.6736 3.77647 28.8 4.08169 28.8 4.39995V8.39995C28.8 8.71821 28.6736 9.02344 28.4485 9.24848C28.2235 9.47352 27.9183 9.59995 27.6 9.59995C27.2818 9.59995 26.9765 9.47352 26.7515 9.24848C26.5264 9.02344 26.4 8.71821 26.4 8.39995V7.29595L19.248 14.448C19.023 14.6727 18.718 14.7989 18.4 14.7989C18.082 14.7989 17.777 14.6727 17.552 14.448L13.6 10.496L6.84801 17.248C6.73815 17.3658 6.60567 17.4604 6.45847 17.526C6.31128 17.5916 6.15237 17.6269 5.99125 17.6297C5.83013 17.6325 5.67008 17.6029 5.52066 17.5425C5.37124 17.4822 5.2355 17.3924 5.12155 17.2784C5.0076 17.1645 4.91777 17.0287 4.85742 16.8793C4.79706 16.7299 4.76742 16.5698 4.77027 16.4087C4.77311 16.2476 4.80838 16.0887 4.87396 15.9415C4.93955 15.7943 5.03412 15.6618 5.15201 15.552L12.752 7.95195C12.977 7.72723 13.282 7.60101 13.6 7.60101C13.918 7.60101 14.223 7.72723 14.448 7.95195L18.4 11.904L24.704 5.59995H23.6C23.2818 5.59995 22.9765 5.47352 22.7515 5.24848C22.5264 5.02344 22.4 4.71821 22.4 4.39995V4.39995ZM6.00001 22.4C6.31827 22.4 6.6235 22.5264 6.84854 22.7514C7.07359 22.9765 7.20001 23.2817 7.20001 23.6V27.6C7.20001 27.9182 7.07359 28.2234 6.84854 28.4485C6.6235 28.6735 6.31827 28.8 6.00001 28.8C5.68175 28.8 5.37653 28.6735 5.15149 28.4485C4.92644 28.2234 4.80001 27.9182 4.80001 27.6V23.6C4.80001 23.2817 4.92644 22.9765 5.15149 22.7514C5.37653 22.5264 5.68175 22.4 6.00001 22.4V22.4ZM13.6 18.8C13.6 18.4817 13.4736 18.1765 13.2485 17.9514C13.0235 17.7264 12.7183 17.6 12.4 17.6C12.0818 17.6 11.7765 17.7264 11.5515 17.9514C11.3264 18.1765 11.2 18.4817 11.2 18.8V27.6C11.2 27.9182 11.3264 28.2234 11.5515 28.4485C11.7765 28.6735 12.0818 28.8 12.4 28.8C12.7183 28.8 13.0235 28.6735 13.2485 28.4485C13.4736 28.2234 13.6 27.9182 13.6 27.6V18.8ZM18.8 20.8C19.1183 20.8 19.4235 20.9264 19.6485 21.1514C19.8736 21.3765 20 21.6817 20 22V27.6C20 27.9182 19.8736 28.2234 19.6485 28.4485C19.4235 28.6735 19.1183 28.8 18.8 28.8C18.4818 28.8 18.1765 28.6735 17.9515 28.4485C17.7264 28.2234 17.6 27.9182 17.6 27.6V22C17.6 21.6817 17.7264 21.3765 17.9515 21.1514C18.1765 20.9264 18.4818 20.8 18.8 20.8ZM26.4 15.6C26.4 15.2817 26.2736 14.9765 26.0485 14.7514C25.8235 14.5264 25.5183 14.4 25.2 14.4C24.8818 14.4 24.5765 14.5264 24.3515 14.7514C24.1264 14.9765 24 15.2817 24 15.6V27.6C24 27.9182 24.1264 28.2234 24.3515 28.4485C24.5765 28.6735 24.8818 28.8 25.2 28.8C25.5183 28.8 25.8235 28.6735 26.0485 28.4485C26.2736 28.2234 26.4 27.9182 26.4 27.6V15.6Z" fill="#28292D"/>
</svg>
