<svg width="32" height="32" xmlns="http://www.w3.org/2000/svg">
 <defs>
  <clipPath id="clip0_880_5388">
   <rect id="svg_1" x="32" y="32" transform="rotate(-180 32,31.999999999999996) " fill="white" height="32" width="32"/>
  </clipPath>
 </defs>
 <g>
  <title>background</title>
  <rect fill="none" id="canvas_background" height="402" width="582" y="-1" x="-1"/>
 </g>
 <g>
  <title>Layer 1</title>
  <g id="svg_2" clip-path="url(#clip0_880_5388)">
   <path id="svg_3" fill="#D92B45" d="m13.083099,0.107712c9.0885,0 9.1584,0.376941 10.2839,1.224467c0.597,0.449 1.7235,0.76 5.838,1.028c0.2985,0.0195 0.5825,0.134 0.773,0.365c0.0875,0.1065 2.1435,3.105 2.1435,7.90752c0,4.7325 -1.4715,6.8895 -1.5345,6.9895c-0.0898,0.1438 -0.2147,0.2624 -0.3629,0.3447c-0.1483,0.0822 -0.315,0.1253 -0.4846,0.1253c-3.3785,0 -8.062,4.3125 -11.2105,11.8405c-0.5445,1.302 -0.657,2.1585 -2.657,2.1585c-1.1375,0 -2.4125,-0.8145 -3.042,-1.8595c-1.2915,-2.135 -0.6355,-6.7206 -0.029,-9.1711c-2.0625,0.0165 -5.79595,0.0446 -7.57245,0.0446c-2.471,0 -4.10647,-1.4735 -4.155971,-3.6275c-0.016531,-0.711 0.077001,-1.619 0.282501,-2.089c-0.544002,-0.5425 -1.245534,-1.3605 -1.276003,-2.414c-0.038,-1.36 0.852503,-2.3955 1.421003,-2.98949c-0.13047,-0.3955 -0.39147,-0.92 -0.36594,-1.54703c0.0625,-1.542 1.25297,-2.5355 1.99447,-3.05397c-0.0615,-0.422 -0.1095,-1.218 0.026,-1.8335c0.535,-2.456528 4.13747,-3.442997 9.92849,-3.442997z"/>
  </g>
 </g>
</svg>