<svg width="32" height="32" viewBox="0 0 32 32" fill="none" xmlns="http://www.w3.org/2000/svg">
<g clip-path="url(#clip0_880_5388)">
<path d="M12.9831 0.00771268C22.0716 0.00771268 22.1415 0.384654 23.267 1.23218C23.864 1.68118 24.9905 1.99218 29.105 2.26018C29.4035 2.27968 29.6875 2.39418 29.878 2.62518C29.9655 2.73168 32.0215 5.73018 32.0215 10.5327C32.0215 15.2652 30.55 17.4222 30.487 17.5222C30.3972 17.666 30.2723 17.7846 30.1241 17.8669C29.9758 17.9491 29.8091 17.9922 29.6395 17.9922C26.261 17.9922 21.5775 22.3047 18.429 29.8327C17.8845 31.1347 17.772 31.9912 15.772 31.9912C14.6345 31.9912 13.3595 31.1767 12.73 30.1317C11.4385 27.9967 12.0945 23.4111 12.701 20.9606C10.6385 20.9771 6.90505 21.0052 5.12855 21.0052C2.65755 21.0052 1.02208 19.5317 0.972579 17.3777C0.956048 16.6667 1.04958 15.7587 1.25508 15.2887C0.711078 14.7462 0.00954577 13.9282 -0.020923 12.8747C-0.058923 11.5147 0.83158 10.4792 1.40008 9.88521C1.26961 9.48971 1.00861 8.96521 1.03414 8.33818C1.09664 6.79618 2.28711 5.80268 3.02861 5.28421C2.96711 4.86221 2.91911 4.06621 3.05461 3.45071C3.58961 0.994182 7.19208 0.00771268 12.9831 0.00771268ZM28.5745 4.28815C24.9905 3.99162 23.0746 3.59015 22.0641 2.82965C21.2821 2.24065 21.4026 2.00715 12.9831 2.00715C10.4151 2.00715 5.39261 2.11415 5.00761 3.87715C4.85461 4.58215 5.59808 5.27512 5.60061 5.28062C5.80361 5.78162 5.57758 6.36965 5.08258 6.58615C5.07461 6.59015 3.07811 7.30512 3.03258 8.42115C3.00258 9.13462 3.49258 9.56312 3.50358 9.58115C3.79508 10.0331 3.68858 10.6531 3.24658 10.9611C3.24158 10.9651 1.94811 11.7491 1.97961 12.8181C2.00411 13.6671 3.12261 14.2647 3.15661 14.2846C3.40661 14.4276 3.58861 14.6751 3.64561 14.9581C3.70161 15.2406 3.63861 15.5371 3.46311 15.7666C3.46311 15.7666 2.95461 16.5746 2.97311 17.3326C3.00961 18.9551 4.75458 19.0061 5.12911 19.0061C7.65161 19.0061 14.13 18.9806 14.13 18.9806C14.4795 18.9791 14.782 19.1441 14.97 19.4236C15.1575 19.7032 15.1715 20.0501 15.0615 20.3681C14.0846 23.1816 13.539 27.5956 14.4451 29.1036C14.7121 29.5481 14.7731 29.9921 15.7731 29.9921C15.9116 29.9921 16.2415 29.8826 16.5855 29.0626C19.927 21.0676 24.918 16.4431 29.006 16.0261C29.3585 15.2221 30.0215 13.5561 30.0215 10.5332C30.0215 7.44762 29.0441 5.06065 28.5745 4.28815Z" fill="#D92B45"/>
</g>
<defs>
<clipPath id="clip0_880_5388">
<rect width="32" height="32" fill="white" transform="translate(32 32) rotate(-180)"/>
</clipPath>
</defs>
</svg>
