<svg width="24" height="24" viewBox="0 0 24 24" fill="none" xmlns="http://www.w3.org/2000/svg">
<path fill-rule="evenodd" clip-rule="evenodd" d="M5.18109 15.663C5.08969 15.478 4.86347 15.4009 4.67747 15.4899L3.9375 15.8438C3.9375 15.8438 6.04688 20.8594 11.9531 21.0938C17.5781 20.9531 21.0119 16.5351 21.0469 12.0469C21.0818 7.5587 17.5781 3.09376 12.0938 3.04689C6.70313 2.95314 4.63538 7.26601 4.63538 7.26601C4.53478 7.44695 4.45313 7.4252 4.45313 7.21904V4.87473C4.45305 4.77532 4.41351 4.68001 4.34319 4.60975C4.27287 4.53948 4.17753 4.50001 4.07813 4.50001H3.46875C3.26166 4.50001 3.09375 4.66876 3.09375 4.87576V9.46801C3.09363 9.51731 3.10323 9.56615 3.12201 9.61173C3.14079 9.65732 3.16838 9.69875 3.2032 9.73365C3.23802 9.76855 3.27938 9.79625 3.32491 9.81514C3.37045 9.83404 3.41926 9.84376 3.46856 9.84376H8.20331C8.2525 9.8438 8.30122 9.83414 8.34668 9.81535C8.39214 9.79656 8.43346 9.76899 8.46826 9.73423C8.50307 9.69947 8.53068 9.65819 8.54954 9.61275C8.56839 9.56731 8.5781 9.51861 8.57813 9.46942V8.9056C8.57813 8.69889 8.41031 8.52873 8.20238 8.52564L5.81325 8.49001C5.60569 8.48692 5.51109 8.3326 5.60869 8.14989C5.60869 8.14989 7.3125 4.21876 12.0469 4.26564C16.6406 4.31251 19.8048 8.19648 19.7812 12.0696C19.5 17.25 15.5625 19.7813 11.9531 19.6875C6.84375 19.6875 5.18109 15.663 5.18109 15.663Z" fill="#161414"/>
</svg>
