<svg width="239" height="236" viewBox="0 0 239 236" fill="none" xmlns="http://www.w3.org/2000/svg">
<path d="M102.429 236H136.571C184.857 236 208.999 236 224 221.188C228.122 217.117 231.112 212.365 233.279 206.623C231.42 206.516 229.577 206.372 227.76 206.182C213.174 204.658 198.484 200.11 185.757 187.401C179.739 181.393 175.357 173.2 171.889 164.571C168.38 155.84 165.508 145.883 162.892 135.774C161.475 130.3 160.134 124.805 158.806 119.367C155.102 104.191 151.505 89.4531 146.665 76.8128C139.042 56.9036 130.566 48.147 119.5 48.147C108.434 48.147 99.9575 56.9036 92.3348 76.8128C87.4951 89.453 83.8979 104.191 80.1939 119.366C78.8664 124.805 77.5253 130.3 76.1083 135.774C73.4917 145.883 70.6203 155.84 67.1114 164.571C63.6431 173.2 59.2608 181.393 53.2434 187.401C40.5157 200.11 25.8263 204.658 11.2398 206.182C9.42293 206.372 7.57974 206.516 5.72055 206.623C7.88845 212.365 10.8779 217.117 15.0003 221.188C30.0006 236 54.1433 236 102.429 236Z" fill="url(#paint0_linear_827_3848)"/>
<path d="M136.571 0H102.429C54.1433 0 30.0006 0 15.0003 14.812C-9.53674e-07 29.6241 0 53.4637 0 101.143V134.857C0 157.228 0 174.351 1.54944 187.756C4.14628 187.664 6.71229 187.501 9.27358 187.233C21.0948 185.998 31.1506 182.587 39.8545 173.896C43.2135 170.542 46.4275 165.106 49.5066 157.445C52.5451 149.884 55.1718 140.888 57.7352 130.984C58.985 126.156 60.2232 121.079 61.4887 115.891C65.2746 100.37 69.3042 83.8502 74.615 69.9795C82.3972 49.6538 95.1424 29.0959 119.5 29.0959C143.858 29.0959 156.603 49.6538 164.385 69.9795C169.696 83.8502 173.725 100.37 177.511 115.891C178.777 121.079 180.015 126.156 181.265 130.984C183.828 140.888 186.455 149.884 189.493 157.445C192.572 165.106 195.787 170.542 199.146 173.896C207.849 182.587 217.905 185.998 229.726 187.233C232.288 187.501 234.854 187.664 237.451 187.756C239 174.351 239 157.228 239 134.857V101.143C239 53.4637 239 29.6241 224 14.812C208.999 0 184.857 0 136.571 0Z" fill="url(#paint1_linear_827_3848)"/>
<defs>
<linearGradient id="paint0_linear_827_3848" x1="0.972171" y1="0.094446" x2="239.01" y2="235.423" gradientUnits="userSpaceOnUse">
<stop stop-color="#393B41"/>
<stop offset="1" stop-color="#28292D"/>
</linearGradient>
<linearGradient id="paint1_linear_827_3848" x1="0.972171" y1="0.094446" x2="239.01" y2="235.423" gradientUnits="userSpaceOnUse">
<stop stop-color="#393B41"/>
<stop offset="1" stop-color="#28292D"/>
</linearGradient>
</defs>
</svg>
