<svg width="236" height="238" viewBox="0 0 236 238" fill="none" xmlns="http://www.w3.org/2000/svg">
<path d="M125.595 75.041C113.961 72.9897 101.988 75.654 92.3083 82.4478C82.6286 89.2415 76.0357 99.6082 73.9799 111.267C71.9241 122.926 74.5738 134.923 81.3461 144.617C88.1185 154.312 98.4586 160.911 110.092 162.962C121.725 165.013 133.699 162.349 143.378 155.555C153.058 148.762 159.651 138.395 161.707 126.736C163.763 115.077 161.113 103.08 154.341 93.3857C147.568 83.6911 137.228 77.0923 125.595 75.041ZM88.6011 113.845C89.9716 106.073 94.3669 99.1615 100.82 94.6324C107.273 90.1032 115.255 88.327 123.011 89.6945C130.767 91.062 137.66 95.4612 142.175 101.924C146.69 108.387 148.456 116.385 147.086 124.158C145.715 131.93 141.32 138.842 134.867 143.371C128.414 147.9 120.431 149.676 112.676 148.309C104.92 146.941 98.0267 142.542 93.5119 136.079C88.997 129.616 87.2305 121.618 88.6011 113.845ZM71.3696 228.465C79.6546 232.059 88.3252 234.664 97.2149 236.231C106.087 237.786 115.111 238.294 124.102 237.745C126.467 237.597 128.729 236.723 130.581 235.242C132.432 233.76 133.784 231.743 134.451 229.465L139.602 211.813C140.503 208.653 142.501 205.918 145.235 204.101C147.968 202.284 151.259 201.504 154.514 201.901C156.676 202.186 158.74 202.967 160.553 204.175L175.697 214.285C177.011 215.18 178.497 215.79 180.061 216.076C181.624 216.362 183.23 216.318 184.775 215.946C186.329 215.586 187.782 214.899 189.05 213.932C203.421 203.021 215.179 189.032 223.467 172.987C224.557 170.857 224.961 168.441 224.622 166.072C224.284 163.703 223.22 161.499 221.577 159.763L208.893 146.406C207.379 144.835 206.257 142.927 205.62 140.838C204.983 138.749 204.849 136.538 205.229 134.386C205.608 132.234 206.49 130.202 207.803 128.457C209.116 126.711 210.823 125.302 212.783 124.344L229.22 116.146C231.363 115.075 233.121 113.363 234.25 111.247C235.379 109.131 235.824 106.716 235.523 104.336C233.222 86.4222 226.946 69.2553 217.155 54.0958C215.856 52.0978 213.97 50.5536 211.757 49.6763C209.544 48.7989 207.114 48.6317 204.801 49.1977L187.112 53.5487C185.281 54.0175 183.362 54.096 181.49 53.766C178.123 53.1654 175.096 51.3401 172.99 48.64C170.884 45.94 169.848 42.5553 170.08 39.1349L171.254 20.8484C171.414 18.4495 170.823 16.0608 169.561 14.0167C168.3 11.9726 166.432 10.3754 164.218 9.44854C155.974 6.01464 147.394 3.45059 138.618 1.79785C129.746 0.339042 120.746 -0.194692 111.763 0.2052C109.369 0.316726 107.07 1.17506 105.186 2.66015C103.302 4.14524 101.929 6.18282 101.257 8.48792L96.1035 26.0849C95.1355 29.381 92.9887 32.2044 90.074 34.0147C87.1195 35.7488 83.6629 36.4188 80.2777 35.9135C78.4195 35.5846 76.6498 34.8733 75.0801 33.8246L59.9818 23.6924C57.9964 22.3598 55.6455 21.6803 53.2559 21.7485C50.8663 21.8168 48.5567 22.6292 46.6481 24.073C32.2795 34.9757 20.5221 48.9571 12.2359 64.9946C11.1389 67.1267 10.731 69.5476 11.0688 71.9215C11.4066 74.2953 12.4734 76.5044 14.1212 78.2423L26.7746 91.5695C29.0345 93.9533 30.3805 97.0612 30.5751 100.344C30.7697 103.628 29.8002 106.875 27.8379 109.513C26.5339 111.262 24.838 112.679 22.8872 113.65L6.42385 121.862C4.28296 122.93 2.5263 124.639 1.39738 126.752C0.268466 128.865 -0.176785 131.277 0.123355 133.654C2.41245 151.573 8.67692 168.748 18.457 183.918C19.7484 185.926 21.6329 187.479 23.8479 188.361C26.0628 189.244 28.4978 189.411 30.8135 188.841L48.5729 184.496C50.4071 184.046 52.3117 183.983 54.1715 184.311L54.2183 184.319C57.5736 184.916 60.592 186.728 62.6988 189.411C64.8055 192.093 65.8535 195.46 65.6432 198.868L64.4605 217.135C64.3076 219.508 64.8892 221.869 66.1258 223.897C67.3623 225.924 69.1936 227.52 71.3696 228.465ZM120.955 223.036C106.753 223.553 92.5997 221.058 79.4311 215.714L80.4044 199.797C80.8522 192.737 78.691 185.761 74.333 180.2C69.9751 174.638 63.7253 170.88 56.776 169.643L56.7175 169.633C52.8434 168.933 48.8653 169.055 45.0399 169.991L29.6256 173.758C22.1954 161.632 17.2754 148.131 15.1582 134.057L29.4738 126.911C33.5069 124.904 37.0138 121.975 39.7119 118.361C42.41 114.748 44.2238 110.55 45.0073 106.107C45.7907 101.664 45.5219 97.0994 44.2224 92.781C42.923 88.4625 40.6292 84.5111 37.5259 81.2451L26.5235 69.6352C33.3324 57.1506 42.5724 46.1612 53.6957 37.3184L66.8112 46.1098C70.0883 48.3172 73.7928 49.8085 77.6839 50.4867L77.7424 50.497C84.7129 51.7112 91.8874 50.3115 97.8977 46.5648C103.908 42.8182 108.333 36.9869 110.33 30.1829L114.834 14.901C121.938 14.7329 129.042 15.2248 136.055 16.3703C142.981 17.6823 149.771 19.635 156.335 22.2128L155.342 38.1076C154.869 45.1799 157.017 52.1763 161.374 57.7559C165.732 63.3355 171.992 67.1057 178.956 68.3437C182.868 69.1294 186.909 68.9937 190.761 67.9473L206.079 64.1757C213.513 76.2897 218.439 89.7798 220.565 103.844L206.303 110.957C202.247 112.948 198.716 115.871 196 119.489C193.284 123.106 191.458 127.314 190.672 131.771C189.887 136.228 190.163 140.806 191.478 145.134C192.793 149.462 195.111 153.417 198.242 156.676L209.25 168.287C202.439 180.768 193.202 191.757 182.084 200.604L168.919 191.816C165.175 189.294 160.888 187.694 156.408 187.149C151.928 186.603 147.382 187.127 143.141 188.678C138.9 190.228 135.085 192.761 132.005 196.07C128.926 199.379 126.671 203.37 125.423 207.717L120.955 223.036Z" fill="#F6F6F6"/>
</svg>
