<svg width="33" height="32" viewBox="0 0 33 32" fill="none" xmlns="http://www.w3.org/2000/svg">
<path d="M16.5 5C22.575 5 27.5 9.925 27.5 16C27.5 22.075 22.575 27 16.5 27C10.425 27 5.5 22.075 5.5 16C5.5 15.782 5.506 15.565 5.519 15.35C5.56 14.643 5.029 14 4.32 14C3.646 14 3.066 14.494 3.025 15.167C3.009 15.442 3 15.72 3 16C3 23.456 9.044 29.5 16.5 29.5C23.956 29.5 30 23.456 30 16C30 8.544 23.956 2.5 16.5 2.5C13.279 2.5 10.32 3.628 8 5.511V4.75C8 4.41848 7.8683 4.10054 7.63388 3.86612C7.39946 3.6317 7.08152 3.5 6.75 3.5C6.41848 3.5 6.10054 3.6317 5.86612 3.86612C5.6317 4.10054 5.5 4.41848 5.5 4.75V9.25C5.5 9.94 6.06 10.5 6.75 10.5H11.25C11.5815 10.5 11.8995 10.3683 12.1339 10.1339C12.3683 9.89946 12.5 9.58152 12.5 9.25C12.5 8.91848 12.3683 8.60054 12.1339 8.36612C11.8995 8.1317 11.5815 8 11.25 8H8.95C10.92 6.14 13.577 5 16.5 5ZM18 9.25C18 8.91848 17.8683 8.60054 17.6339 8.36612C17.3995 8.1317 17.0815 8 16.75 8C16.4185 8 16.1005 8.1317 15.8661 8.36612C15.6317 8.60054 15.5 8.91848 15.5 9.25V15.75C15.5 16.44 16.06 17 16.75 17H20.25C20.5815 17 20.8995 16.8683 21.1339 16.6339C21.3683 16.3995 21.5 16.0815 21.5 15.75C21.5 15.4185 21.3683 15.1005 21.1339 14.8661C20.8995 14.6317 20.5815 14.5 20.25 14.5H18V9.25Z" fill="#28292D"/>
</svg>
