<svg width="32" height="32" xmlns="http://www.w3.org/2000/svg">
 <defs>
  <clipPath id="clip0_880_5386">
   <rect id="svg_1" fill="white" height="32" width="32"/>
  </clipPath>
 </defs>
 <g>
  <title>background</title>
  <rect fill="none" id="canvas_background" height="402" width="582" y="-1" x="-1"/>
 </g>
 <g>
  <title>Layer 1</title>
  <g id="svg_2" clip-path="url(#clip0_880_5386)">
   <path id="svg_3" fill="#31A68A" d="m19.0169,31.9923c-9.08848,0 -9.15845,-0.377 -10.28395,-1.2245c-0.597,-0.449 -1.72347,-0.76 -5.83797,-1.028c-0.2985,-0.0195 -0.5825,-0.134 -0.77296,-0.365c-0.0875,-0.1065 -2.1435,-3.105 -2.1435,-7.9075c0,-4.7325 1.4715,-6.8895 1.53446,-6.9895c0.08977,-0.1438 0.21467,-0.2624 0.36294,-0.3447c0.14827,-0.0822 0.31502,-0.1253 0.48456,-0.1253c3.3785,0 8.06202,-4.31251 11.21052,-11.84051c0.5445,-1.302 0.657,-2.1585 2.657,-2.1585c1.1375,0 2.4125,0.8145 3.042,1.85953c1.2915,2.135 0.6355,6.72053 0.029,9.17108c2.0625,-0.0165 5.796,-0.0446 7.5725,-0.0446c2.471,0 4.1064,1.4735 4.1559,3.6275c0.0166,0.711 -0.077,1.619 -0.2825,2.089c0.544,0.5425 1.2456,1.3605 1.276,2.414c0.038,1.36 -0.8525,2.3955 -1.421,2.9895c0.1305,0.3955 0.3915,0.92 0.366,1.547c-0.0625,1.542 -1.253,2.5355 -1.9945,3.054c0.0615,0.422 0.1095,1.218 -0.026,1.8335c-0.535,2.4565 -4.1375,3.443 -9.9285,3.443z"/>
  </g>
 </g>
</svg>