<svg width="32" height="32" viewBox="0 0 32 32" fill="none" xmlns="http://www.w3.org/2000/svg">
<g clip-path="url(#clip0_880_5386)">
<path d="M19.0169 31.9923C9.92842 31.9923 9.85845 31.6153 8.73295 30.7678C8.13595 30.3188 7.00948 30.0078 2.89498 29.7398C2.59648 29.7203 2.31248 29.6058 2.12202 29.3748C2.03452 29.2683 -0.0214844 26.2698 -0.0214844 21.4673C-0.0214844 16.7348 1.45002 14.5778 1.51298 14.4778C1.60275 14.334 1.72765 14.2154 1.87592 14.1331C2.02419 14.0509 2.19094 14.0078 2.36048 14.0078C5.73898 14.0078 10.4225 9.69529 13.571 2.16729C14.1155 0.865289 14.228 0.00878906 16.228 0.00878906C17.3655 0.00878906 18.6405 0.823289 19.27 1.86832C20.5615 4.00332 19.9055 8.58885 19.299 11.0394C21.3615 11.0229 25.095 10.9948 26.8715 10.9948C29.3425 10.9948 30.9779 12.4683 31.0274 14.6223C31.044 15.3333 30.9504 16.2413 30.7449 16.7113C31.2889 17.2538 31.9905 18.0718 32.0209 19.1253C32.0589 20.4853 31.1684 21.5208 30.5999 22.1148C30.7304 22.5103 30.9914 23.0348 30.9659 23.6618C30.9034 25.2038 29.7129 26.1973 28.9714 26.7158C29.0329 27.1378 29.0809 27.9338 28.9454 28.5493C28.4104 31.0058 24.8079 31.9923 19.0169 31.9923ZM3.42545 27.7118C7.00945 28.0084 8.92539 28.4098 9.93589 29.1703C10.7179 29.7593 10.5974 29.9928 19.0169 29.9928C21.5849 29.9928 26.6074 29.8858 26.9924 28.1228C27.1454 27.4178 26.4019 26.7249 26.3994 26.7194C26.1964 26.2184 26.4224 25.6304 26.9174 25.4139C26.9254 25.4098 28.9219 24.6949 28.9674 23.5788C28.9974 22.8654 28.5074 22.4369 28.4964 22.4188C28.2049 21.9669 28.3114 21.3469 28.7534 21.0389C28.7584 21.0349 30.0519 20.2509 30.0204 19.1819C29.9959 18.3329 28.8774 17.7353 28.8434 17.7154C28.5934 17.5724 28.4114 17.3249 28.3544 17.0419C28.2984 16.7594 28.3614 16.4629 28.5369 16.2334C28.5369 16.2334 29.0454 15.4254 29.0269 14.6674C28.9904 13.0449 27.2454 12.9939 26.8709 12.9939C24.3484 12.9939 17.87 13.0194 17.87 13.0194C17.5205 13.0209 17.218 12.8559 17.03 12.5764C16.8425 12.2969 16.8285 11.9499 16.9385 11.6319C17.9154 8.81838 18.461 4.40438 17.5549 2.89638C17.2879 2.45188 17.2269 2.00788 16.2269 2.00788C16.0884 2.00788 15.7585 2.11738 15.4145 2.93738C12.073 10.9324 7.08195 15.5569 2.99395 15.9739C2.64145 16.7779 1.97845 18.4439 1.97845 21.4668C1.97845 24.5524 2.95592 26.9393 3.42545 27.7118Z" fill="#31A68A"/>
</g>
<defs>
<clipPath id="clip0_880_5386">
<rect width="32" height="32" fill="white"/>
</clipPath>
</defs>
</svg>
