<svg width="25" height="25" viewBox="0 0 25 25" fill="none" xmlns="http://www.w3.org/2000/svg">
<path d="M6.19402 12.5L2.79902 3.76998C2.56302 3.16298 3.15502 2.58198 3.74102 2.78898L3.83402 2.82798L21.834 11.828C21.9501 11.8859 22.0491 11.973 22.1215 12.0807C22.1938 12.1884 22.237 12.3131 22.2468 12.4425C22.2566 12.5718 22.2326 12.7015 22.1773 12.8189C22.1219 12.9362 22.0371 13.0372 21.931 13.112L21.834 13.17L3.83402 22.17C3.25102 22.461 2.61702 21.925 2.76902 21.322L2.79902 21.227L6.19402 12.5L2.79902 3.76998L6.19402 12.5ZM4.90202 5.03998L7.51202 11.75H14.139C14.3203 11.75 14.4954 11.8156 14.6319 11.9347C14.7685 12.0539 14.8574 12.2184 14.882 12.398L14.889 12.5C14.889 12.6814 14.8232 12.8566 14.7039 12.9932C14.5845 13.1298 14.4198 13.2185 14.24 13.243L14.139 13.25H7.51002L4.90102 19.96L19.822 12.5L4.90102 5.03998H4.90202Z" fill="#333333"/>
</svg>
