<svg width="32" height="32" viewBox="0 0 32 32" fill="none" xmlns="http://www.w3.org/2000/svg">
<path d="M16 11C14.6739 11 13.4021 11.5268 12.4645 12.4645C11.5268 13.4022 11 14.6739 11 16C11 17.3261 11.5268 18.5979 12.4645 19.5356C13.4021 20.4732 14.6739 21 16 21C17.3261 21 18.5978 20.4732 19.5355 19.5356C20.4732 18.5979 21 17.3261 21 16C21 14.6739 20.4732 13.4022 19.5355 12.4645C18.5978 11.5268 17.3261 11 16 11ZM12.6667 16C12.6667 15.116 13.0178 14.2681 13.643 13.643C14.2681 13.0179 15.1159 12.6667 16 12.6667C16.884 12.6667 17.7319 13.0179 18.357 13.643C18.9821 14.2681 19.3333 15.116 19.3333 16C19.3333 16.8841 18.9821 17.7319 18.357 18.357C17.7319 18.9822 16.884 19.3334 16 19.3334C15.1159 19.3334 14.2681 18.9822 13.643 18.357C13.0178 17.7319 12.6667 16.8841 12.6667 16ZM12.996 28.9787C13.982 29.214 14.9913 29.3327 16.0047 29.3327C17.0158 29.3316 18.0233 29.2121 19.0067 28.9767C19.2652 28.9144 19.4982 28.774 19.674 28.5746C19.8499 28.3751 19.96 28.1263 19.9893 27.862L20.2147 25.8147C20.2527 25.4486 20.4202 25.1081 20.687 24.8545C20.9538 24.6009 21.3024 24.4508 21.67 24.4314C21.9147 24.4207 22.158 24.4667 22.382 24.5647L24.2533 25.3854C24.416 25.4585 24.5922 25.4969 24.7706 25.4981C24.949 25.4992 25.1257 25.4631 25.2893 25.392C25.454 25.322 25.6013 25.218 25.7227 25.0867C27.0986 23.6035 28.1259 21.8317 28.7293 19.9007C28.8083 19.6445 28.8059 19.3701 28.7223 19.1154C28.6387 18.8607 28.4781 18.6382 28.2627 18.4787L26.6 17.252C26.402 17.1082 26.2408 16.9195 26.1296 16.7015C26.0185 16.4834 25.9606 16.2421 25.9606 15.9974C25.9606 15.7526 26.0185 15.5113 26.1296 15.2933C26.2408 15.0752 26.402 14.8865 26.6 14.7427L28.2573 13.5187C28.4733 13.3589 28.6343 13.1358 28.7179 12.8804C28.8015 12.6251 28.8036 12.35 28.724 12.0934C28.1203 10.1621 27.0918 8.39049 25.714 6.90869C25.5314 6.71357 25.2928 6.57991 25.0311 6.52618C24.7693 6.47244 24.4973 6.50127 24.2527 6.60869L22.382 7.43269C22.1887 7.52002 21.978 7.56602 21.7647 7.56602C21.3807 7.56527 21.0104 7.42279 20.725 7.16591C20.4396 6.90903 20.259 6.55582 20.218 6.17402L19.9913 4.13403C19.9623 3.86628 19.8503 3.6143 19.671 3.41335C19.4917 3.21241 19.254 3.07255 18.9913 3.01336C18.0129 2.79493 17.0144 2.67897 16.012 2.66736C15.0027 2.67901 13.9973 2.79518 13.012 3.01403C12.7496 3.07288 12.5121 3.21229 12.3328 3.41274C12.1535 3.6132 12.0413 3.86468 12.012 4.13203L11.7853 6.17336C11.7425 6.55577 11.5603 6.90897 11.2733 7.16536C10.9805 7.41411 10.6114 7.55526 10.2273 7.56536C10.0155 7.56522 9.80596 7.52118 9.61198 7.43603L7.74532 6.61203C7.49984 6.50364 7.2267 6.47442 6.96385 6.52842C6.70101 6.58243 6.46151 6.71697 6.27865 6.91336C4.90269 8.39549 3.87542 10.1664 3.27198 12.0967C3.19227 12.3532 3.19437 12.6282 3.27799 12.8835C3.36161 13.1388 3.52261 13.3617 3.73865 13.5214L5.39732 14.7454C5.69362 14.9643 5.90302 15.281 5.98853 15.6394C6.07404 15.9978 6.03016 16.3748 5.86465 16.704C5.75459 16.9223 5.59473 17.1116 5.39798 17.2567L3.73798 18.4827C3.52213 18.6422 3.36124 18.8649 3.27763 19.1199C3.19401 19.375 3.1918 19.6497 3.27132 19.906C3.87369 21.8381 4.90104 23.6108 6.27798 25.094C6.45989 25.2903 6.6985 25.425 6.96056 25.4792C7.22263 25.5335 7.4951 25.5046 7.73998 25.3967L9.61865 24.572C9.81265 24.4867 10.022 24.4427 10.234 24.4427H10.2393C10.6219 24.4432 10.9909 24.5844 11.2761 24.8393C11.5613 25.0943 11.7428 25.4452 11.786 25.8254L12.0113 27.8634C12.0407 28.128 12.151 28.3772 12.3272 28.5768C12.5035 28.7764 12.737 28.9168 12.996 28.9787ZM18.372 27.4154C16.812 27.7487 15.1987 27.7487 13.6387 27.4154L13.436 25.6407C13.3479 24.8532 12.973 24.1257 12.3828 23.597C11.7926 23.0683 11.0284 22.7753 10.236 22.774H10.2293C9.78738 22.7722 9.34998 22.8631 8.94532 23.0407L7.31465 23.756C6.25683 22.5629 5.44973 21.1693 4.94132 19.658L6.38465 18.5914C6.79139 18.2914 7.122 17.9002 7.34984 17.4491C7.57768 16.998 7.69638 16.4997 7.69638 15.9944C7.69638 15.489 7.57768 14.9907 7.34984 14.5396C7.122 14.0885 6.79139 13.6973 6.38465 13.3974L4.94198 12.3307C5.45136 10.8211 6.25864 9.42915 7.31598 8.23736L8.93732 8.95202C9.34264 9.13178 9.78126 9.22423 10.2247 9.22336H10.2313C11.0256 9.22171 11.7915 8.92776 12.3829 8.39758C12.9743 7.86739 13.3499 7.13806 13.438 6.34869L13.638 4.57536C14.4201 4.41864 15.2151 4.33472 16.0127 4.32469C16.804 4.33469 17.5927 4.41803 18.3687 4.57469L18.5687 6.34736C18.6542 7.13669 19.0281 7.86668 19.6186 8.3974C20.2091 8.92812 20.9747 9.22223 21.7687 9.22336C22.2164 9.23394 22.6605 9.14037 23.066 8.95002L24.686 8.23603C25.744 9.42772 26.5515 10.82 27.0607 12.33L25.6227 13.392C25.213 13.6906 24.8797 14.0817 24.6499 14.5336C24.4201 14.9854 24.3004 15.4851 24.3004 15.992C24.3004 16.4989 24.4201 16.9987 24.6499 17.4505C24.8797 17.9023 25.213 18.2935 25.6227 18.592L27.066 19.6587C26.5563 21.168 25.7493 22.5599 24.6927 23.752L23.066 23.0387C22.6029 22.8332 22.0978 22.7402 21.5919 22.7672C21.086 22.7941 20.5936 22.9403 20.155 23.1938C19.7164 23.4474 19.3439 23.801 19.068 24.2259C18.792 24.6508 18.6205 25.1349 18.5673 25.6387L18.372 27.4154Z" fill="#161414"/>
</svg>
