<svg width="17" height="17" viewBox="0 0 17 17" fill="none" xmlns="http://www.w3.org/2000/svg">
<path d="M15.5 5C15.5 4.72386 15.2761 4.5 15 4.5H13.45C13.2 3.35 12.2 2.5 11 2.5C9.8 2.5 8.8 3.35 8.55 4.5H2C1.72386 4.5 1.5 4.72386 1.5 5C1.5 5.27614 1.72386 5.5 2 5.5H8.55C8.8 6.65 9.8 7.5 11 7.5C12.2 7.5 13.2 6.65 13.45 5.5H15C15.2761 5.5 15.5 5.27614 15.5 5ZM11 6.5C10.15 6.5 9.5 5.85 9.5 5C9.5 4.15 10.15 3.5 11 3.5C11.85 3.5 12.5 4.15 12.5 5C12.5 5.85 11.85 6.5 11 6.5ZM1.5 12C1.5 12.2761 1.72386 12.5 2 12.5H3.55C3.8 13.65 4.8 14.5 6 14.5C7.2 14.5 8.2 13.65 8.45 12.5H15C15.2761 12.5 15.5 12.2761 15.5 12C15.5 11.7239 15.2761 11.5 15 11.5H8.45C8.2 10.35 7.2 9.5 6 9.5C4.8 9.5 3.8 10.35 3.55 11.5H2C1.72386 11.5 1.5 11.7239 1.5 12ZM6 10.5C6.85 10.5 7.5 11.15 7.5 12C7.5 12.85 6.85 13.5 6 13.5C5.15 13.5 4.5 12.85 4.5 12C4.5 11.15 5.15 10.5 6 10.5Z" fill="#161414"/>
</svg>
