<svg width="17" height="16" viewBox="0 0 17 16" fill="none" xmlns="http://www.w3.org/2000/svg">
<path d="M11.4714 9.28145L13.2491 11.0937L8.43819 16L3.62795 11.0944L5.40562 9.28145L8.43884 12.3908L11.4714 9.28145ZM14.5053 6.18808L16.2973 8.00033L14.521 9.81259L12.7433 8.00033L14.5053 6.18808ZM8.43884 6.18808L10.2159 7.98432L8.43819 9.79724L6.66117 8.00033L8.43819 6.18875L8.43884 6.18808ZM2.37174 6.18808L4.13436 8.00033L2.37305 9.79657L0.594727 8.00033L2.37174 6.18808ZM8.43949 0L13.2497 4.89095L11.4721 6.70253L8.43884 3.60916L5.40627 6.71855L3.6286 4.90629L8.43884 0.000667251L8.43949 0Z" fill="#161414"/>
</svg>
