<svg width="28" height="28" viewBox="0 0 28 28" fill="none" xmlns="http://www.w3.org/2000/svg">
<path d="M11.0705 0.00350015L11.921 0H16.079L16.9307 0.00350015L17.997 0.0151673L18.5022 0.0233343L18.9898 0.0361682L19.46 0.0525022L19.9127 0.0711696L20.349 0.0956706L20.769 0.124839L21.1715 0.15984L21.56 0.198342C23.59 0.427018 24.9818 0.917038 26.0318 1.96708C27.0818 3.01713 27.5718 4.40785 27.8005 6.4391L27.8402 6.82762L27.874 7.2313L27.9032 7.65132L27.9265 8.0865L27.9557 8.77253L27.9697 9.25089L27.9848 10.0022L27.9953 11.0698L28 12.2132L27.9988 16.0785L27.9953 16.9302L27.9837 17.9966L27.9755 18.5018L27.9627 18.9895L27.9463 19.4596L27.9277 19.9123L27.9032 20.3487L27.874 20.7687L27.839 21.1712L27.8005 21.5597C27.5718 23.5898 27.0818 24.9817 26.0318 26.0318C24.9818 27.0818 23.5912 27.5718 21.56 27.8005L21.1715 27.8402L20.7678 27.874L20.3478 27.9032L19.9127 27.9265L19.2267 27.9557L18.7483 27.9697L17.997 27.9848L16.9295 27.9953L15.7862 28L11.921 27.9988L11.0693 27.9953L10.003 27.9837L9.49783 27.9755L9.01017 27.9627L8.54 27.9463L8.08733 27.9277L7.651 27.9032L7.231 27.874L6.8285 27.839L6.44 27.8005C4.41 27.5718 3.01817 27.0818 1.96817 26.0318C0.918167 24.9817 0.428167 23.591 0.1995 21.5597L0.159833 21.1712L0.126 20.7675L0.0968333 20.3475L0.0735 19.9123L0.0443333 19.2263L0.0303333 18.7479L0.0151667 17.9966L0.00466667 16.929L0 15.7857L0.00116667 11.9203L0.00466667 11.0686L0.0163333 10.0022L0.0245 9.49706L0.0373333 9.00938L0.0536667 8.53919L0.0723333 8.0865L0.0968333 7.65015L0.126 7.23013L0.161 6.82762L0.1995 6.4391C0.428167 4.40902 0.918167 3.01713 1.96817 1.96708C3.01817 0.917038 4.40883 0.427018 6.44 0.198342L6.8285 0.158673L7.23217 0.124839L7.65217 0.0956706L8.08733 0.0723363L8.77333 0.0431685L9.25167 0.0291679L10.003 0.0140006L11.0705 0.00350015ZM7.92167 8.51585H4.725C4.87667 15.7962 8.51667 20.1713 14.8983 20.1713H15.26V16.0062C17.605 16.2395 19.3783 17.9546 20.09 20.1713H23.4033C22.4933 16.8579 20.1017 15.0261 18.6083 14.3261C20.1017 13.4627 22.2017 11.3626 22.7033 8.51585H19.6933C19.04 10.826 17.1033 12.926 15.26 13.1244V8.51585H12.25V16.5895C10.3833 16.1228 8.02667 13.8594 7.92167 8.51585Z" fill="#1A76FF"/>
</svg>
