<svg width="32" height="27" viewBox="0 0 32 27" fill="none" xmlns="http://www.w3.org/2000/svg">
<path d="M15.5775 0C6.98808 0 4.18651e-05 5.65226 4.18651e-05 12.6C4.18651e-05 15.029 0.855244 17.3814 2.47582 19.4152C2.16894 22.4658 1.34645 24.7305 0.152182 25.8034C-0.00566986 25.9452 -0.0451327 26.1622 0.0545629 26.3414C0.143354 26.5015 0.324572 26.6 0.51929 26.6C0.543175 26.6 0.56758 26.5986 0.591985 26.5953C0.80228 26.5687 5.68737 25.9364 9.22033 24.1042C11.2272 24.8318 13.3644 25.2 15.5775 25.2C24.1669 25.2 31.1549 19.5477 31.1549 12.6C31.1549 5.65226 24.1669 0 15.5775 0Z" fill="white"/>
</svg>
