<svg width="25" height="26" viewBox="0 0 25 26" fill="none" xmlns="http://www.w3.org/2000/svg">
<g clip-path="url(#clip0_17_64)">
<path d="M9.56522 0.1875C4.37908 0.1875 0.179348 4.57812 0.179348 10C0.179348 15.4219 4.37908 19.8125 9.56522 19.8125C11.7548 19.8125 13.7687 19.0039 15.3641 17.6875L16.2011 18.5625C15.8499 19.2539 15.9732 20.1367 16.5299 20.7188L20.9239 25.3438C21.6077 26.0586 22.7211 26.0586 23.4049 25.3438L24.2418 24.4688C24.9256 23.7539 24.9256 22.5898 24.2418 21.875L19.8179 17.2812C19.2575 16.6953 18.4168 16.5938 17.7554 16.9688L16.9185 16.0938C18.1851 14.4219 18.9511 12.3008 18.9511 10C18.9511 4.57812 14.7514 0.1875 9.56522 0.1875ZM9.56522 2C13.7911 2 17.2174 5.58203 17.2174 10C17.2174 14.418 13.7911 18 9.56522 18C5.33933 18 1.91304 14.418 1.91304 10C1.91304 5.58203 5.33933 2 9.56522 2ZM4.72283 7.46875C4.22962 8.30469 3.94565 9.28906 3.94565 10.3438C3.94565 13.3711 6.28091 15.8125 9.17663 15.8125C10.2938 15.8125 11.3438 15.4336 12.1957 14.8125C11.9677 14.8398 11.7137 14.8438 11.4783 14.8438C7.73438 14.8438 4.72283 11.6953 4.72283 7.78125C4.72283 7.67578 4.71909 7.57422 4.72283 7.46875Z" fill="white"/>
</g>
<defs>
<clipPath id="clip0_17_64">
<rect width="24.8696" height="26" fill="white"/>
</clipPath>
</defs>
</svg>
